<svg id="Layer_1" data-name="Layer 1" xmlns="http://www.w3.org/2000/svg" viewBox="0 0 2723.87 822.22"><defs><style>.cls-1{fill:#fff;}</style></defs><title>intro1</title><path class="cls-1" d="M1848.8,499.55c-2.46,1-4.65,1.8-6.82,2.67-15.6,6.26-31.32,12.25-46.76,18.87-20.3,8.71-40.31,18.14-58.24,31.23a82.5,82.5,0,0,0-16,15c-7.36,9.28-4.61,17.19,7,19.84,8.36,1.9,17.24,3.13,25.73,2.5,19.1-1.42,38.2-3.54,57.11-6.58,19.43-3.12,38.57-8,57.94-11.51a931.81,931.81,0,0,0,101.15-24q57-17.05,113.53-35.52c32.48-10.63,64.31-23.08,94.37-39.56A209.57,209.57,0,0,0,2200.26,458,43.72,43.72,0,0,0,2210,447.8c5.64-8,3.56-13.82-5.6-17a43.18,43.18,0,0,0-6.1-1.54c-16.53-3.12-33.05-1.16-49.49.62a652.83,652.83,0,0,0-79.19,13.39c-4.61,1.08-7.39,0-10.52-4-28.85-37.25-66.76-53.39-113.54-46.23-48.94,7.5-87.71,46.85-95.36,95.57C1849.66,492.19,1849.28,495.83,1848.8,499.55Z" transform="translate(-22.52 -96.2)"/><path class="cls-1" d="M1508,493c-52.05,23.61-105.8,38-161.35,46s-111.44,9-167.75,5.54c.23,2.12.25,3.43.53,4.68a163.14,163.14,0,0,0,25,57.45c4.76,7,4.79,6.83,12.85,5.27,34.79-6.74,69.59-13.49,104.42-20,41-7.7,82.16-15.28,121.81-28.68,19.86-6.71,39.09-15.32,58.61-23.06,3.08-1.22,5.5-2.82,5.83-6.61A224.38,224.38,0,0,0,1508,493Z" transform="translate(-22.52 -96.2)"/><path class="cls-1" d="M23.23,96.79c-1.6,4.84-.1,8.1,3.26,11.47C36.9,118.68,47.33,129.12,57,140.19q112.89,128.9,134.58,299a549.34,549.34,0,0,1,.51,130.7,543.3,543.3,0,0,1-35.8,142.59,551.15,551.15,0,0,1-128.57,192c-4.1,4-6.66,7.89-4.35,14h9.15c.18-.87.1-1.8.53-2.3,1.53-1.8,3.19-3.49,4.87-5.14A561,561,0,0,0,163.38,726.11q50.84-121.34,43-252.83a557.48,557.48,0,0,0-27.55-144.46Q135.1,197.7,36.19,101C32.5,97.33,28.94,95.06,23.23,96.79Z" transform="translate(-22.52 -96.2)"/><path class="cls-1" d="M1439.17,377.72c-86.21-64.08-211.45-25.61-248.56,67.73C1279.3,444.44,1362.5,425.08,1439.17,377.72Z" transform="translate(-22.52 -96.2)"/><path class="cls-1" d="M2406.61,520.54c-25.46-2.29-46.54-12.48-61-35.39-6.2,8.91-7.83,17.95-8.26,27.48-.31,6.85,1.94,11.94,7.46,16.23,10.81,8.39,23.05,13.55,36.06,17.13,7.33,2,14.77,3.64,22.15,5.44-22.5-.45-43.51-5.5-61.72-20.86,5.06,19,24.74,33.72,45.09,34.64,21,.95,41.52-9.82,47-24.61-22.85,2-43.54-1.43-57.18-9.92,1.82.23,2.78.29,3.72.48,7.7,1.61,15.34,3.66,23.11,4.79,9.86,1.43,19.78,3.05,29.81,1.1,2.41-.47,4.58-.85,5.62-3.52,3.06-7.9,5-15.92,3.49-24.8-5.34-1.1-10.48-2-15.52-3.27-5.33-1.37-10.62-3-15.82-4.77-5-1.72-9.84-3.67-14.61-5.85s-9.25-4.73-13.86-7.11c10.15,2.5,19.64,6.23,29.31,9.44s19.34,6.27,29.7,6.91c-1.38-19.26-17.64-37-38.41-42.38-23.09-5.95-46.83,5.85-55.23,21.21,4.21,4.77,8.31,10.24,13.22,14.83C2373.74,509.85,2390,515.72,2406.61,520.54Z" transform="translate(-22.52 -96.2)"/><path class="cls-1" d="M1878.9,582.65l-.45,2.09c31.28,32.3,69.19,45.38,113.48,35,39.7-9.28,66.7-34.34,82.84-73.78-3.65,1.32-5.51,2.07-7.41,2.67-16,5-31.87,10.78-48.13,14.88-35.51,9-71.86,12.83-108.26,16.06C1900.28,580.54,1889.59,581.63,1878.9,582.65Z" transform="translate(-22.52 -96.2)"/><path class="cls-1" d="M1175.72,508.12c3.64.22,6.24.4,8.84.53,30.52,1.59,61,.47,91.43-1.82,36-2.71,71.52-8.18,106.41-17.54,36.52-9.79,71.33-23.57,103.11-44.37,2.33-1.52,4.52-3.26,7.27-5.26l-14.84-24.42c-2.11,1.35-3.45,2.09-4.66,3-24.87,19-52.29,33.26-81.56,44.06-47.07,17.38-96.06,24.77-145.92,26.84-20,.83-40,.25-60,.3h-8.66c-.55,4.14-1.12,7.5-1.42,10.89C1175.55,502.65,1175.72,505,1175.72,508.12Z" transform="translate(-22.52 -96.2)"/><path class="cls-1" d="M1494.55,580.52c-2.68.87-3.69,1.09-4.62,1.51-38.78,17.37-79.53,28.35-120.95,37-38.26,8-76.6,15.72-114.9,23.61-3.52.73-7,1.79-11.14,2.87a21.46,21.46,0,0,0,2.55,2.82,168.81,168.81,0,0,0,41.8,21.71c3.55,1.26,6.55.67,9.84-.66,28.28-11.43,57.46-20.1,86.94-27.73,26.41-6.83,53-13.19,79.39-19.92,2.92-.74,6.36-1.93,8.17-4.08A148.5,148.5,0,0,0,1494.55,580.52Z" transform="translate(-22.52 -96.2)"/><path class="cls-1" d="M942.4,553.05a40.46,40.46,0,1,0-41-40.15A40.38,40.38,0,0,0,942.4,553.05Z" transform="translate(-22.52 -96.2)"/><path class="cls-1" d="M2609.08,535.13a20,20,0,0,0,3.23-.36q25-7.19,49.95-14.46c17.42-5.07,34.77-10.34,50.74-19.25,2.69-1.5,5.27-3.19,7.7-4.67-2.66-10.25-5-14.64-11-20.66-4.6,1.36-9.32,2.9-14.11,4.15-18.29,4.77-36.66,9.27-54.91,14.24a117.31,117.31,0,0,0-32.3,14.38c-2.23,1.42-4.45,2.84-4.23,6.07C2604.68,521.62,2605.31,528.63,2609.08,535.13Z" transform="translate(-22.52 -96.2)"/><path class="cls-1" d="M527.8,541.93a29.38,29.38,0,1,0-.42-58.75,29.69,29.69,0,0,0-29.05,29.27A29.27,29.27,0,0,0,527.8,541.93Z" transform="translate(-22.52 -96.2)"/><path class="cls-1" d="M723.13,472a41.81,41.81,0,0,0-42.43,42.37A42.29,42.29,0,1,0,723.13,472Z" transform="translate(-22.52 -96.2)"/><path class="cls-1" d="M2624.8,556.07c13.69,15.63,41.23,19.08,58.76,12.31,21.58-8.33,34.38-23.79,38.92-46.43-16.39,6.37-32,13-48,18.54S2641.9,550.74,2624.8,556.07Z" transform="translate(-22.52 -96.2)"/><path class="cls-1" d="M2606.36,499.41c13.09-7.54,26.88-12.5,41.12-16.24,14.46-3.8,29-7.33,43.44-11.13,3.86-1,7.58-2.59,12.66-4.35-19.41-15.33-39.41-19.2-61-11.19C2622.79,463.84,2610.69,478.45,2606.36,499.41Z" transform="translate(-22.52 -96.2)"/><path class="cls-1" d="M1589.14,516.38A20.68,20.68,0,0,0,1568,495.66a20.44,20.44,0,0,0-20.28,20.72A20.1,20.1,0,0,0,1568,537C1579.89,537.17,1589.12,528.18,1589.14,516.38Z" transform="translate(-22.52 -96.2)"/><path class="cls-1" d="M1446.55,641.92c-18.51.72-94.49,25.09-104.81,37.22C1381.43,679.27,1416.09,666.78,1446.55,641.92Z" transform="translate(-22.52 -96.2)"/><path class="cls-1" d="M338.27,512.31a18.93,18.93,0,0,0,18.58,19.4A19.48,19.48,0,0,0,376.31,513a19,19,0,0,0-18.78-19.15C346.73,493.7,338.44,501.64,338.27,512.31Z" transform="translate(-22.52 -96.2)"/><path class="cls-1" d="M1877.34,392.11a18.19,18.19,0,0,0-18.13-17.87,17.86,17.86,0,0,0-17.64,18.24,17.64,17.64,0,0,0,18,17.77A17.89,17.89,0,0,0,1877.34,392.11Z" transform="translate(-22.52 -96.2)"/><path class="cls-1" d="M1244.91,627.08c3.07,1.15,5.36,2.68,7.71,2.77,7.31.29,14.69.6,21.94-.13,12.28-1.24,24.39-3.65,35.65-9.07,3.2-1.54,6.94-2.74,7.18-7.23C1303.65,604.47,1255.53,612.88,1244.91,627.08Z" transform="translate(-22.52 -96.2)"/><path class="cls-1" d="M1117.07,369.79a15,15,0,1,0-14.51,15.36C1111,384.9,1117.19,378.37,1117.07,369.79Z" transform="translate(-22.52 -96.2)"/><path class="cls-1" d="M2118.87,664.47a13.27,13.27,0,1,0-.46-26.53,13.27,13.27,0,0,0,.46,26.53Z" transform="translate(-22.52 -96.2)"/><path class="cls-1" d="M1762.13,417.71a13,13,0,0,0,12.32,13.66c7.53.44,13.39-4.61,13.83-11.89.46-7.74-4.29-13.44-11.67-14C1768.9,404.88,1762.53,410.27,1762.13,417.71Z" transform="translate(-22.52 -96.2)"/><path class="cls-1" d="M1540.72,365.47a12,12,0,0,0-12.13-11.72A12.31,12.31,0,0,0,1516.85,366a11.87,11.87,0,0,0,12.25,11.53A11.52,11.52,0,0,0,1540.72,365.47Z" transform="translate(-22.52 -96.2)"/><path class="cls-1" d="M1158.51,396.71a11.62,11.62,0,0,0-12.16-11.56,11.86,11.86,0,1,0,.6,23.72A11.68,11.68,0,0,0,1158.51,396.71Z" transform="translate(-22.52 -96.2)"/><path class="cls-1" d="M2465.67,448A11.24,11.24,0,0,0,2454,436.79,11.66,11.66,0,0,0,2442.25,448c-.14,6.6,5.33,11.79,12.2,11.58A11.13,11.13,0,0,0,2465.67,448Z" transform="translate(-22.52 -96.2)"/><path class="cls-1" d="M2703.66,603.25a11.67,11.67,0,0,0-11.36-11.68,11.29,11.29,0,0,0-12,10.9c-.33,6.92,4.61,12,11.58,12A11.48,11.48,0,0,0,2703.66,603.25Z" transform="translate(-22.52 -96.2)"/><path class="cls-1" d="M2097.62,608.14A10.62,10.62,0,0,0,2087,597a11.19,11.19,0,0,0-11.06,10.91,11.31,11.31,0,0,0,10.47,10.73A10.67,10.67,0,0,0,2097.62,608.14Z" transform="translate(-22.52 -96.2)"/><path class="cls-1" d="M1515.35,618.88c.18,5.75,5.75,10.9,11.44,10.59A11,11,0,0,0,1537,618.6a10.65,10.65,0,0,0-10.92-10.81A11,11,0,0,0,1515.35,618.88Z" transform="translate(-22.52 -96.2)"/><path class="cls-1" d="M1736,399.51a11.11,11.11,0,0,0-10.93-11,11.52,11.52,0,0,0-10.85,10.41c-.3,5.78,4.74,11.12,10.67,11.29A10.83,10.83,0,0,0,1736,399.51Z" transform="translate(-22.52 -96.2)"/><path class="cls-1" d="M1915,375.17A10.86,10.86,0,0,0,1926,365a10.62,10.62,0,0,0-10.37-11.47,10.44,10.44,0,0,0-11,10A10.77,10.77,0,0,0,1915,375.17Z" transform="translate(-22.52 -96.2)"/><path class="cls-1" d="M2470.75,522.72a10,10,0,0,0-10.07,9.9,9.87,9.87,0,1,0,10.07-9.9Z" transform="translate(-22.52 -96.2)"/><path class="cls-1" d="M2313.87,505.86a9.35,9.35,0,1,0-18.69-.43,8.94,8.94,0,0,0,8.73,9.18A9.09,9.09,0,0,0,2313.87,505.86Z" transform="translate(-22.52 -96.2)"/><path class="cls-1" d="M911.12,571.91a9.22,9.22,0,0,0,9.32-9.5,9.47,9.47,0,0,0-18.92.24A9.26,9.26,0,0,0,911.12,571.91Z" transform="translate(-22.52 -96.2)"/><path class="cls-1" d="M1913.25,650.3a8.78,8.78,0,0,0,9-8.74,8.57,8.57,0,0,0-9.08-8.59,8.31,8.31,0,0,0-8.52,8.26A8.57,8.57,0,0,0,1913.25,650.3Z" transform="translate(-22.52 -96.2)"/><path class="cls-1" d="M1859,614.42a8.75,8.75,0,0,0,9.3-8.61,9.3,9.3,0,0,0-8.53-8.79,8.58,8.58,0,0,0-9.07,8.8C1850.7,610.86,1854,614.26,1859,614.42Z" transform="translate(-22.52 -96.2)"/><path class="cls-1" d="M1167.4,625.31a8.27,8.27,0,0,0,8.17-8.73A8.86,8.86,0,0,0,1167,608a9,9,0,0,0-8.65,9.33A8.58,8.58,0,0,0,1167.4,625.31Z" transform="translate(-22.52 -96.2)"/><path class="cls-1" d="M781.43,483.21c0-5-3.42-8.32-8.47-8.19a7.92,7.92,0,0,0-8,7.91,8.25,8.25,0,0,0,8.13,8.73A8.16,8.16,0,0,0,781.43,483.21Z" transform="translate(-22.52 -96.2)"/><path class="cls-1" d="M2739.3,460.72c-4.82-.42-8.25,2.39-8.54,7a7.86,7.86,0,0,0,7.3,8.52,8.25,8.25,0,0,0,8.32-7.68A7.53,7.53,0,0,0,2739.3,460.72Z" transform="translate(-22.52 -96.2)"/><path class="cls-1" d="M2434.93,589.2a8.23,8.23,0,0,0-8.2,7.83,8,8,0,0,0,7.31,7.8,7.72,7.72,0,0,0,8.47-7.31A8,8,0,0,0,2434.93,589.2Z" transform="translate(-22.52 -96.2)"/><path class="cls-1" d="M2283.87,493a7,7,0,0,0-7.31-6.63,6.68,6.68,0,0,0-6.65,7.16,7,7,0,0,0,7.17,6.74A7.34,7.34,0,0,0,2283.87,493Z" transform="translate(-22.52 -96.2)"/><path class="cls-1" d="M1408.93,320.29a7,7,0,0,0-7.48-6.48,6.56,6.56,0,0,0-6.65,7.16,7,7,0,0,0,7.29,6.72C1405.74,327.45,1409.08,323.84,1408.93,320.29Z" transform="translate(-22.52 -96.2)"/><path class="cls-1" d="M996.34,502.63a6.9,6.9,0,0,0,7-6.89,7,7,0,1,0-7,6.89Z" transform="translate(-22.52 -96.2)"/><path class="cls-1" d="M2334.53,540a6.3,6.3,0,0,0-6.33-6.58,6.52,6.52,0,1,0-.14,13A6.29,6.29,0,0,0,2334.53,540Z" transform="translate(-22.52 -96.2)"/><path class="cls-1" d="M1338.92,711.29a6,6,0,0,0-6.34-5.54,5.86,5.86,0,0,0-5.53,6.31,6.06,6.06,0,0,0,6.25,5.63A6.38,6.38,0,0,0,1338.92,711.29Z" transform="translate(-22.52 -96.2)"/><path class="cls-1" d="M2448.22,556.16a5.57,5.57,0,0,0-6.41-5.29,5.42,5.42,0,0,0-4.92,5.94,5.36,5.36,0,0,0,5.58,5.33A5.53,5.53,0,0,0,2448.22,556.16Z" transform="translate(-22.52 -96.2)"/><path class="cls-1" d="M2632.45,442.43a5.87,5.87,0,0,0-6.24-5.53c-3.34.16-5.28,2-5.6,5.26s2.48,5.94,5.73,6A6.08,6.08,0,0,0,2632.45,442.43Z" transform="translate(-22.52 -96.2)"/><path class="cls-1" d="M2666.06,628.53c3.32,0,6.24-2.79,6.06-5.87a6.22,6.22,0,0,0-5.82-5.37,5.72,5.72,0,0,0-5.95,5.91A5.59,5.59,0,0,0,2666.06,628.53Z" transform="translate(-22.52 -96.2)"/><path class="cls-1" d="M1848.8,499.55c.48-3.73.85-7.37,1.42-11,7.65-48.72,46.42-88.07,95.36-95.57,46.78-7.16,84.69,9,113.54,46.23,3.14,4,5.91,5.12,10.52,4a652.83,652.83,0,0,1,79.19-13.39c16.44-1.77,33-3.74,49.49-.62a43.18,43.18,0,0,1,6.1,1.54c9.15,3.16,11.23,8.95,5.6,17a43.72,43.72,0,0,1-9.77,10.16,209.57,209.57,0,0,1-22.46,14.56c-30.05,16.48-61.88,28.92-94.37,39.56q-56.52,18.5-113.53,35.52a931.81,931.81,0,0,1-101.15,24c-19.37,3.51-38.51,8.39-57.94,11.51-18.91,3-38,5.15-57.11,6.58-8.49.63-17.37-.59-25.73-2.5-11.62-2.65-14.37-10.55-7-19.84a82.5,82.5,0,0,1,16-15c17.93-13.09,37.94-22.52,58.24-31.23,15.44-6.62,31.16-12.61,46.76-18.87C1844.16,501.35,1846.34,500.52,1848.8,499.55Zm146-76.75a22.53,22.53,0,0,0-22.64,22.37,22.93,22.93,0,1,0,45.85.24C2018,432.7,2007.77,422.7,1994.81,422.8ZM1856.34,550.06l-6.79-24.35c-14,6.56-28.63,10.87-39.61,22.42C1818.07,553.2,1839.46,553.88,1856.34,550.06Zm262.45-83.59c-7.43-3.59-33-4.1-44.8-1l6.15,22.24C2097.61,483,2114.27,473.91,2118.79,466.47Z" transform="translate(-22.52 -96.2)"/><path class="cls-1" d="M1508,493a224.38,224.38,0,0,1,0,40.56c-.33,3.79-2.76,5.39-5.83,6.61-19.52,7.74-38.74,16.35-58.61,23.06-39.65,13.4-80.76,21-121.81,28.68-34.83,6.54-69.62,13.29-104.42,20-8.06,1.56-8.09,1.75-12.85-5.27a163.14,163.14,0,0,1-25-57.45c-.27-1.26-.3-2.57-.53-4.68,56.31,3.47,112.15,2.46,167.75-5.54S1456,516.63,1508,493Z" transform="translate(-22.52 -96.2)"/><path class="cls-1" d="M23.23,96.79c5.71-1.74,9.27.54,13,4.16q98.63,96.87,142.67,227.87A557.48,557.48,0,0,1,206.4,473.29q7.71,131.43-43,252.83A561,561,0,0,1,37.94,911c-1.68,1.66-3.34,3.35-4.87,5.14-.43.5-.35,1.43-.53,2.3H23.39c-2.31-6.12.25-10,4.35-14a551.15,551.15,0,0,0,128.57-192,543.3,543.3,0,0,0,35.8-142.59,549.34,549.34,0,0,0-.51-130.7q-21.55-170-134.58-299c-9.7-11.07-20.13-21.51-30.54-31.94C23.13,104.89,21.63,101.63,23.23,96.79Z" transform="translate(-22.52 -96.2)"/><path class="cls-1" d="M1439.17,377.72c-76.67,47.36-159.87,66.72-248.56,67.73C1227.72,352.11,1353,313.64,1439.17,377.72Zm-105.74,24.71a152.48,152.48,0,0,0,46-7.66,78.18,78.18,0,0,0,12.88-5.84c4.61-2.58,9.33-5.66,9-11.85s-5.52-8.57-10.35-10.63a63.76,63.76,0,0,0-11.28-3.46,129.35,129.35,0,0,0-51.74-.64c-10.78,2-21.34,5.36-31.82,8.68a29.39,29.39,0,0,0-10,6.17c-6.62,5.82-6,11.95,1.54,16.66a41.31,41.31,0,0,0,9.36,4.05C1308,401.37,1319.23,402.43,1333.43,402.43Z" transform="translate(-22.52 -96.2)"/><path class="cls-1" d="M2406.61,520.54c-16.65-4.82-32.88-10.69-45.86-22.83-4.91-4.59-9-10.06-13.22-14.83,8.4-15.36,32.13-27.16,55.23-21.21,20.77,5.35,37,23.12,38.41,42.38-10.35-.64-20.07-3.71-29.7-6.91s-19.17-6.94-29.31-9.44c4.61,2.39,9.14,5,13.86,7.11s9.66,4.13,14.61,5.85c5.2,1.81,10.49,3.4,15.82,4.77,5,1.29,10.18,2.16,15.52,3.27,1.56,8.88-.44,16.9-3.49,24.8-1,2.67-3.21,3-5.62,3.52-10,2-20,.33-29.81-1.1-7.77-1.13-15.41-3.17-23.11-4.79-.94-.2-1.91-.25-3.72-.48,13.64,8.5,34.33,12,57.18,9.92-5.48,14.79-26,25.56-47,24.61-20.35-.92-40-15.68-45.09-34.64,18.21,15.36,39.22,20.42,61.72,20.86-7.39-1.8-14.83-3.42-22.15-5.44-13-3.59-25.24-8.74-36.06-17.13-5.52-4.28-7.77-9.38-7.46-16.23.43-9.53,2.06-18.57,8.26-27.48C2360.07,508.06,2381.15,518.25,2406.61,520.54Z" transform="translate(-22.52 -96.2)"/><path class="cls-1" d="M1878.9,582.65c10.69-1,21.38-2.11,32.07-3.06,36.41-3.23,72.75-7.09,108.26-16.06,16.26-4.1,32.1-9.85,48.13-14.88,1.91-.6,3.76-1.35,7.41-2.67-16.14,39.44-43.14,64.5-82.84,73.78-44.29,10.35-82.2-2.73-113.48-35Z" transform="translate(-22.52 -96.2)"/><path class="cls-1" d="M1175.72,508.12c0-3.14-.17-5.47,0-7.77.3-3.39.86-6.75,1.42-10.89h8.66c20-.06,40,.53,60-.3,49.86-2.08,98.85-9.47,145.92-26.84,29.26-10.8,56.68-25.09,81.56-44.06,1.21-.92,2.55-1.66,4.66-3l14.84,24.42c-2.75,2-4.94,3.74-7.27,5.26-31.78,20.81-66.59,34.58-103.11,44.37-34.89,9.36-70.43,14.83-106.41,17.54-30.44,2.29-60.91,3.41-91.43,1.82C1182,508.52,1179.36,508.34,1175.72,508.12Z" transform="translate(-22.52 -96.2)"/><path class="cls-1" d="M1494.55,580.52a148.5,148.5,0,0,1-22.91,37.19c-1.81,2.15-5.25,3.33-8.17,4.08-26.44,6.74-53,13.09-79.39,19.92-29.48,7.63-58.66,16.3-86.94,27.73-3.29,1.33-6.29,1.92-9.84.66a168.81,168.81,0,0,1-41.8-21.71,21.46,21.46,0,0,1-2.55-2.82c4.17-1.08,7.62-2.15,11.14-2.87,38.3-7.89,76.63-15.57,114.9-23.61,41.42-8.7,82.17-19.68,120.95-37C1490.86,581.62,1491.87,581.39,1494.55,580.52Z" transform="translate(-22.52 -96.2)"/><path class="cls-1" d="M942.4,553.05a40.46,40.46,0,1,1,40.32-40.72A40.56,40.56,0,0,1,942.4,553.05Z" transform="translate(-22.52 -96.2)"/><path class="cls-1" d="M2609.08,535.13c-3.77-6.5-4.4-13.51-4.88-20.58-.22-3.23,2-4.65,4.23-6.07a117.31,117.31,0,0,1,32.3-14.38c18.24-5,36.61-9.46,54.91-14.24,4.8-1.25,9.52-2.79,14.11-4.15,5.95,6,8.3,10.41,11,20.66-2.43,1.48-5,3.17-7.7,4.67-16,8.91-33.31,14.18-50.74,19.25q-25,7.27-49.95,14.46A20,20,0,0,1,2609.08,535.13Z" transform="translate(-22.52 -96.2)"/><path class="cls-1" d="M527.8,541.93a29.27,29.27,0,0,1-29.47-29.48,29.69,29.69,0,0,1,29.05-29.27,29.38,29.38,0,1,1,.42,58.75Z" transform="translate(-22.52 -96.2)"/><path class="cls-1" d="M723.13,472a41.92,41.92,0,0,1,42.15,41.9,42.29,42.29,0,1,1-84.57.47A41.81,41.81,0,0,1,723.13,472Zm.15,72.62c16.71-.17,30.53-14.35,30.21-31A31.09,31.09,0,0,0,723,483.49c-16.46-.13-30.69,14.16-30.63,30.74A30.82,30.82,0,0,0,723.27,544.59Z" transform="translate(-22.52 -96.2)"/><path class="cls-1" d="M2624.8,556.07c17.11-5.32,33.55-10,49.64-15.58s31.65-12.17,48-18.54c-4.53,22.63-17.34,38.1-38.92,46.43C2666,575.14,2638.49,571.69,2624.8,556.07Z" transform="translate(-22.52 -96.2)"/><path class="cls-1" d="M2606.36,499.41c4.34-21,16.43-35.57,36.21-42.91,21.6-8,41.59-4.14,61,11.19-5.08,1.77-8.79,3.34-12.66,4.35-14.46,3.8-29,7.33-43.44,11.13C2633.23,486.91,2619.45,491.87,2606.36,499.41Z" transform="translate(-22.52 -96.2)"/><path class="cls-1" d="M1589.14,516.38c0,11.8-9.24,20.79-21.17,20.61a20.1,20.1,0,0,1-20.27-20.61A20.44,20.44,0,0,1,1568,495.66,20.68,20.68,0,0,1,1589.14,516.38Z" transform="translate(-22.52 -96.2)"/><path class="cls-1" d="M1446.55,641.92c-30.46,24.86-65.12,37.35-104.81,37.22C1352.07,667,1428,642.65,1446.55,641.92Z" transform="translate(-22.52 -96.2)"/><path class="cls-1" d="M338.27,512.31c.16-10.67,8.45-18.61,19.26-18.45A19,19,0,0,1,376.31,513a19.48,19.48,0,0,1-19.46,18.71A18.93,18.93,0,0,1,338.27,512.31Z" transform="translate(-22.52 -96.2)"/><path class="cls-1" d="M1877.34,392.11a17.89,17.89,0,0,1-17.75,18.14,17.64,17.64,0,0,1-18-17.77,17.86,17.86,0,0,1,17.64-18.24A18.19,18.19,0,0,1,1877.34,392.11Z" transform="translate(-22.52 -96.2)"/><path class="cls-1" d="M1244.91,627.08c10.62-14.21,58.75-22.61,72.48-13.66-.24,4.49-4,5.69-7.18,7.23-11.26,5.42-23.37,7.83-35.65,9.07-7.25.73-14.64.42-21.94.13C1250.27,629.76,1248,628.24,1244.91,627.08Z" transform="translate(-22.52 -96.2)"/><path class="cls-1" d="M1117.07,369.79c.12,8.58-6,15.12-14.51,15.36a15.05,15.05,0,1,1,14.51-15.36Z" transform="translate(-22.52 -96.2)"/><path class="cls-1" d="M2118.87,664.47a13.27,13.27,0,0,1-.46-26.53,13.27,13.27,0,1,1,.46,26.53Z" transform="translate(-22.52 -96.2)"/><path class="cls-1" d="M1762.13,417.71c.4-7.44,6.77-12.83,14.47-12.24,7.38.57,12.14,6.27,11.67,14-.44,7.28-6.3,12.33-13.83,11.89A13,13,0,0,1,1762.13,417.71Z" transform="translate(-22.52 -96.2)"/><path class="cls-1" d="M1540.72,365.47a11.52,11.52,0,0,1-11.62,12.06A11.87,11.87,0,0,1,1516.85,366a12.31,12.31,0,0,1,11.74-12.25A12,12,0,0,1,1540.72,365.47Z" transform="translate(-22.52 -96.2)"/><path class="cls-1" d="M1158.51,396.71A11.68,11.68,0,0,1,1147,408.87a11.86,11.86,0,1,1-.6-23.72A11.62,11.62,0,0,1,1158.51,396.71Z" transform="translate(-22.52 -96.2)"/><path class="cls-1" d="M2465.67,448a11.13,11.13,0,0,1-11.23,11.6c-6.87.2-12.34-5-12.2-11.58A11.66,11.66,0,0,1,2454,436.79,11.24,11.24,0,0,1,2465.67,448Z" transform="translate(-22.52 -96.2)"/><path class="cls-1" d="M2703.66,603.25a11.48,11.48,0,0,1-11.76,11.22c-7,0-11.91-5.08-11.58-12a11.29,11.29,0,0,1,12-10.9A11.67,11.67,0,0,1,2703.66,603.25Z" transform="translate(-22.52 -96.2)"/><path class="cls-1" d="M2097.62,608.14a10.67,10.67,0,0,1-11.21,10.52,11.31,11.31,0,0,1-10.47-10.73A11.19,11.19,0,0,1,2087,597,10.62,10.62,0,0,1,2097.62,608.14Z" transform="translate(-22.52 -96.2)"/><path class="cls-1" d="M1515.35,618.88a11,11,0,0,1,10.77-11.08A10.65,10.65,0,0,1,1537,618.6a11,11,0,0,1-10.25,10.86C1521.1,629.78,1515.53,624.63,1515.35,618.88Z" transform="translate(-22.52 -96.2)"/><path class="cls-1" d="M1736,399.51a10.83,10.83,0,0,1-11.12,10.7c-5.92-.17-11-5.51-10.67-11.29a11.52,11.52,0,0,1,10.85-10.41A11.11,11.11,0,0,1,1736,399.51Z" transform="translate(-22.52 -96.2)"/><path class="cls-1" d="M1915,375.17a10.77,10.77,0,0,1-10.32-11.61,10.44,10.44,0,0,1,11-10A10.62,10.62,0,0,1,1926,365,10.86,10.86,0,0,1,1915,375.17Z" transform="translate(-22.52 -96.2)"/><path class="cls-1" d="M2470.75,522.72a10.05,10.05,0,1,1-10.07,9.9A9.87,9.87,0,0,1,2470.75,522.72Z" transform="translate(-22.52 -96.2)"/><path class="cls-1" d="M2313.87,505.86a9.09,9.09,0,0,1-10,8.75,8.94,8.94,0,0,1-8.73-9.18,9.35,9.35,0,1,1,18.69.43Z" transform="translate(-22.52 -96.2)"/><path class="cls-1" d="M911.12,571.91a9.26,9.26,0,0,1-9.6-9.26,9.47,9.47,0,0,1,18.92-.24A9.22,9.22,0,0,1,911.12,571.91Z" transform="translate(-22.52 -96.2)"/><path class="cls-1" d="M1913.25,650.3a8.57,8.57,0,0,1-8.58-9.08,8.31,8.31,0,0,1,8.52-8.26,8.57,8.57,0,0,1,9.08,8.59A8.78,8.78,0,0,1,1913.25,650.3Z" transform="translate(-22.52 -96.2)"/><path class="cls-1" d="M1859,614.42c-5-.17-8.32-3.56-8.29-8.59a8.58,8.58,0,0,1,9.07-8.8,9.3,9.3,0,0,1,8.53,8.79A8.75,8.75,0,0,1,1859,614.42Z" transform="translate(-22.52 -96.2)"/><path class="cls-1" d="M1167.4,625.31a8.58,8.58,0,0,1-9-7.95A9,9,0,0,1,1167,608a8.86,8.86,0,0,1,8.55,8.56A8.27,8.27,0,0,1,1167.4,625.31Z" transform="translate(-22.52 -96.2)"/><path class="cls-1" d="M781.43,483.21a8.16,8.16,0,0,1-8.38,8.44,8.25,8.25,0,0,1-8.13-8.73,7.92,7.92,0,0,1,8-7.91C778,474.9,781.42,478.2,781.43,483.21Z" transform="translate(-22.52 -96.2)"/><path class="cls-1" d="M2739.3,460.72a7.53,7.53,0,0,1,7.08,7.84,8.25,8.25,0,0,1-8.32,7.68,7.86,7.86,0,0,1-7.3-8.52C2731.05,463.11,2734.49,460.29,2739.3,460.72Z" transform="translate(-22.52 -96.2)"/><path class="cls-1" d="M2434.93,589.2a8,8,0,0,1,7.58,8.32,7.72,7.72,0,0,1-8.47,7.31,8,8,0,0,1-7.31-7.8A8.23,8.23,0,0,1,2434.93,589.2Z" transform="translate(-22.52 -96.2)"/><path class="cls-1" d="M2283.87,493a7.34,7.34,0,0,1-6.79,7.28,7,7,0,0,1-7.17-6.74,6.68,6.68,0,0,1,6.65-7.16A7,7,0,0,1,2283.87,493Z" transform="translate(-22.52 -96.2)"/><path class="cls-1" d="M1408.93,320.29c.15,3.55-3.19,7.16-6.84,7.39a7,7,0,0,1-7.29-6.72,6.56,6.56,0,0,1,6.65-7.16A7,7,0,0,1,1408.93,320.29Z" transform="translate(-22.52 -96.2)"/><path class="cls-1" d="M996.34,502.63a6.88,6.88,0,1,1,7-6.89A6.86,6.86,0,0,1,996.34,502.63Z" transform="translate(-22.52 -96.2)"/><path class="cls-1" d="M2334.53,540a6.29,6.29,0,0,1-6.46,6.45,6.52,6.52,0,1,1,6.46-6.45Z" transform="translate(-22.52 -96.2)"/><path class="cls-1" d="M1338.92,711.29a6.38,6.38,0,0,1-5.61,6.39,6.06,6.06,0,0,1-6.25-5.63,5.86,5.86,0,0,1,5.53-6.31A6,6,0,0,1,1338.92,711.29Z" transform="translate(-22.52 -96.2)"/><path class="cls-1" d="M2448.22,556.16a5.53,5.53,0,0,1-5.76,6,5.36,5.36,0,0,1-5.58-5.33,5.42,5.42,0,0,1,4.92-5.94A5.57,5.57,0,0,1,2448.22,556.16Z" transform="translate(-22.52 -96.2)"/><path class="cls-1" d="M2632.45,442.43a6.08,6.08,0,0,1-6.11,5.76c-3.25-.09-6-2.89-5.73-6s2.26-5.1,5.6-5.26A5.87,5.87,0,0,1,2632.45,442.43Z" transform="translate(-22.52 -96.2)"/><path class="cls-1" d="M2666.06,628.53a5.59,5.59,0,0,1-5.71-5.33,5.72,5.72,0,0,1,5.95-5.91,6.22,6.22,0,0,1,5.82,5.37C2672.3,625.74,2669.38,628.57,2666.06,628.53Z" transform="translate(-22.52 -96.2)"/><path class="cls-1" d="M1994.81,422.8c13-.11,23.23,9.9,23.21,22.61a22.93,22.93,0,1,1-45.85-.24A22.53,22.53,0,0,1,1994.81,422.8Z" transform="translate(-22.52 -96.2)"/><path class="cls-1" d="M1856.34,550.06c-16.88,3.82-38.27,3.14-46.4-1.94,11-11.55,25.58-15.86,39.61-22.42Z" transform="translate(-22.52 -96.2)"/><path class="cls-1" d="M2118.79,466.47c-4.52,7.44-21.17,16.53-38.65,21.26L2074,465.49C2085.83,462.37,2111.35,462.88,2118.79,466.47Z" transform="translate(-22.52 -96.2)"/><path class="cls-1" d="M1333.43,402.43c-14.2,0-25.43-1.06-36.3-4.52a41.31,41.31,0,0,1-9.36-4.05c-7.55-4.71-8.16-10.84-1.54-16.66a29.39,29.39,0,0,1,10-6.17c10.48-3.32,21-6.68,31.82-8.68a129.35,129.35,0,0,1,51.74.64,63.76,63.76,0,0,1,11.28,3.46c4.83,2.06,10.06,4.34,10.35,10.63s-4.43,9.27-9,11.85a78.18,78.18,0,0,1-12.88,5.84A152.48,152.48,0,0,1,1333.43,402.43Z" transform="translate(-22.52 -96.2)"/><path class="cls-1" d="M723.27,544.59a30.82,30.82,0,0,1-30.87-30.36c-.06-16.58,14.17-30.87,30.63-30.74a31.09,31.09,0,0,1,30.46,30.11C753.81,530.24,740,544.42,723.27,544.59Z" transform="translate(-22.52 -96.2)"/></svg>