<svg id="Layer_1" data-name="Layer 1" xmlns="http://www.w3.org/2000/svg" viewBox="0 0 1898.48 574.53"><defs><style>.cls-1{fill:#fff;stroke:#231f20;stroke-miterlimit:10;stroke-width:2.09px;}</style></defs><title>intro12</title><path class="cls-1" d="M2121.48,626.8c-1.71.67-3.24,1.25-4.75,1.86-10.86,4.36-21.8,8.53-32.55,13.14-14.13,6.06-28.06,12.63-40.55,21.74A57.44,57.44,0,0,0,2032.47,674c-5.12,6.46-3.21,12,4.88,13.81a61.47,61.47,0,0,0,17.91,1.74c13.3-1,26.6-2.47,39.76-4.58,13.53-2.17,26.85-5.57,40.34-8a648.74,648.74,0,0,0,70.42-16.68q39.67-11.87,79-24.73c22.61-7.4,44.77-16.07,65.7-27.54a145.9,145.9,0,0,0,15.63-10.14,30.44,30.44,0,0,0,6.8-7.07c3.92-5.6,2.48-9.62-3.9-11.83a30.06,30.06,0,0,0-4.24-1.07c-11.51-2.17-23-.8-34.46.43a454.51,454.51,0,0,0-55.14,9.32c-3.21.75-5.14,0-7.33-2.81-20.09-25.94-46.48-37.17-79-32.19-34.08,5.22-61.06,32.62-66.39,66.54C2122.07,621.67,2121.81,624.21,2121.48,626.8Z" transform="translate(-848.95 -344.94)"/><path class="cls-1" d="M1884.22,622.25c-36.24,16.44-73.66,26.46-112.34,32s-77.59,6.28-116.79,3.86c.16,1.47.18,2.39.37,3.26a113.58,113.58,0,0,0,17.44,40c3.32,4.89,3.33,4.76,8.95,3.67,24.22-4.69,48.45-9.39,72.7-13.94,28.58-5.36,57.2-10.64,84.81-20,13.83-4.67,27.21-10.67,40.8-16.05,2.14-.85,3.83-2,4.06-4.6A156.22,156.22,0,0,0,1884.22,622.25Z" transform="translate(-848.95 -344.94)"/><path class="cls-1" d="M850.49,346.39c-1.11,3.37-.07,5.64,2.27,8,7.24,7.26,14.51,14.53,21.26,22.23q78.6,89.74,93.69,208.14a382.46,382.46,0,0,1,.35,91A378.25,378.25,0,0,1,943.14,775a383.72,383.72,0,0,1-89.51,133.65c-2.86,2.78-4.64,5.5-3,9.75H857c.13-.6.07-1.25.37-1.6,1.06-1.25,2.22-2.43,3.39-3.58a395.16,395.16,0,0,0,98.11-405.31q-30.46-91.29-99.33-158.65C856.94,346.77,854.46,345.18,850.49,346.39Z" transform="translate(-848.95 -344.94)"/><path class="cls-1" d="M1836.29,542c-60-44.61-147.21-17.83-173,47.15C1725,588.43,1782.91,575,1836.29,542Z" transform="translate(-848.95 -344.94)"/><path class="cls-1" d="M2509.83,641.41c-17.73-1.6-32.4-8.69-42.47-24.64-4.32,6.2-5.45,12.5-5.75,19.13a12.46,12.46,0,0,0,5.2,11.3c7.53,5.84,16.05,9.43,25.1,11.93,5.1,1.41,10.28,2.53,15.42,3.79-15.67-.31-30.29-3.83-43-14.53,3.52,13.2,17.22,23.47,31.39,24.11,14.59.66,28.9-6.84,32.72-17.14-15.91,1.41-30.31-1-39.81-6.91,1.26.16,1.94.2,2.59.34,5.36,1.12,10.68,2.54,16.09,3.33,6.86,1,13.77,2.12,20.75.76,1.68-.33,3.19-.59,3.91-2.45,2.13-5.5,3.52-11.08,2.43-17.27-3.72-.77-7.3-1.38-10.81-2.27-3.71-1-7.4-2.06-11-3.32-3.45-1.2-6.85-2.56-10.17-4.07s-6.44-3.29-9.65-5c7.07,1.74,13.68,4.34,20.41,6.57s13.47,4.36,20.68,4.81c-1-13.41-12.28-25.78-26.74-29.51-16.08-4.14-32.6,4.07-38.45,14.77,2.93,3.32,5.78,7.13,9.2,10.32C2486.95,634,2498.24,638.06,2509.83,641.41Z" transform="translate(-848.95 -344.94)"/><path class="cls-1" d="M2142.43,684.65l-.31,1.46c21.78,22.49,48.17,31.59,79,24.38,27.64-6.46,46.44-23.91,57.67-51.37-2.54.92-3.83,1.44-5.16,1.86-11.16,3.5-22.19,7.5-33.51,10.36-24.72,6.24-50,8.93-75.37,11.18C2157.32,683.19,2149.88,683.94,2142.43,684.65Z" transform="translate(-848.95 -344.94)"/><path class="cls-1" d="M1652.87,632.77c2.53.15,4.34.28,6.15.37,21.25,1.1,42.46.33,63.66-1.27a401.46,401.46,0,0,0,74.09-12.21c25.42-6.82,49.66-16.41,71.79-30.89,1.62-1.06,3.14-2.27,5.06-3.66l-10.33-17c-1.47.94-2.4,1.45-3.24,2.1a216.29,216.29,0,0,1-56.78,30.68c-32.77,12.1-66.88,17.24-101.59,18.69-13.9.58-27.83.17-41.75.21h-6c-.39,2.88-.78,5.22-1,7.58C1652.75,629,1652.87,630.58,1652.87,632.77Z" transform="translate(-848.95 -344.94)"/><path class="cls-1" d="M1874.84,683.17c-1.86.6-2.57.76-3.21,1.05-27,12.09-55.37,19.73-84.2,25.79-26.64,5.6-53.33,10.95-80,16.44-2.45.51-4.86,1.25-7.76,2a14.94,14.94,0,0,0,1.77,2,117.53,117.53,0,0,0,29.11,15.11,9,9,0,0,0,6.85-.46c19.69-8,40-14,60.53-19.3,18.39-4.76,36.87-9.18,55.27-13.87,2-.52,4.43-1.34,5.69-2.84A103.39,103.39,0,0,0,1874.84,683.17Z" transform="translate(-848.95 -344.94)"/><path class="cls-1" d="M1490.43,664a28.17,28.17,0,1,0-28.52-28A28.12,28.12,0,0,0,1490.43,664Z" transform="translate(-848.95 -344.94)"/><path class="cls-1" d="M2650.79,651.57a13.9,13.9,0,0,0,2.25-.25q17.39-5,34.77-10.07c12.13-3.53,24.21-7.2,35.32-13.4,1.87-1,3.67-2.22,5.36-3.25-1.85-7.14-3.48-10.19-7.62-14.39-3.2.95-6.49,2-9.83,2.89-12.74,3.32-25.52,6.46-38.23,9.91a81.67,81.67,0,0,0-22.48,10c-1.55,1-3.1,2-2.95,4.23C2647.73,642.16,2648.17,647,2650.79,651.57Z" transform="translate(-848.95 -344.94)"/><path class="cls-1" d="M1201.78,656.3a20.45,20.45,0,1,0-.29-40.9,20.67,20.67,0,0,0-20.23,20.38A20.38,20.38,0,0,0,1201.78,656.3Z" transform="translate(-848.95 -344.94)"/><path class="cls-1" d="M1337.77,607.6a29.11,29.11,0,0,0-29.54,29.5,29.44,29.44,0,1,0,29.54-29.5Z" transform="translate(-848.95 -344.94)"/><path class="cls-1" d="M2661.74,666.14c9.53,10.88,28.7,13.28,40.91,8.57,15-5.8,23.94-16.57,27.09-32.32-11.41,4.44-22.3,9-33.44,12.91S2673.65,662.44,2661.74,666.14Z" transform="translate(-848.95 -344.94)"/><path class="cls-1" d="M2648.9,626.7a115.23,115.23,0,0,1,28.63-11.31c10.06-2.65,20.18-5.1,30.24-7.75,2.69-.71,5.28-1.8,8.81-3-13.52-10.67-27.44-13.37-42.47-7.79C2660.34,601.94,2651.92,612.11,2648.9,626.7Z" transform="translate(-848.95 -344.94)"/><path class="cls-1" d="M1940.69,638.51A14.39,14.39,0,0,0,1926,624.09a14.23,14.23,0,0,0-14.12,14.43A14,14,0,0,0,1926,652.87,14.2,14.2,0,0,0,1940.69,638.51Z" transform="translate(-848.95 -344.94)"/><path class="cls-1" d="M1841.43,725.92c-12.88.5-65.78,17.47-73,25.91C1796.09,751.92,1820.22,743.23,1841.43,725.92Z" transform="translate(-848.95 -344.94)"/><path class="cls-1" d="M1069.83,635.68a13.18,13.18,0,0,0,12.94,13.51,13.56,13.56,0,0,0,13.55-13,13.2,13.2,0,0,0-13.07-13.33A12.86,12.86,0,0,0,1069.83,635.68Z" transform="translate(-848.95 -344.94)"/><path class="cls-1" d="M2141.34,552a12.66,12.66,0,0,0-12.62-12.44,12.43,12.43,0,0,0-12.28,12.7A12.28,12.28,0,0,0,2129,564.62,12.46,12.46,0,0,0,2141.34,552Z" transform="translate(-848.95 -344.94)"/><path class="cls-1" d="M1701,715.59c2.14.8,3.73,1.87,5.37,1.93a109.64,109.64,0,0,0,15.28-.09c8.55-.86,17-2.54,24.82-6.31,2.23-1.07,4.83-1.91,5-5C1741.94,699.85,1708.43,705.7,1701,715.59Z" transform="translate(-848.95 -344.94)"/><path class="cls-1" d="M1612,536.45a10.46,10.46,0,1,0-10.1,10.7A10.16,10.16,0,0,0,1612,536.45Z" transform="translate(-848.95 -344.94)"/><path class="cls-1" d="M2309.5,741.62a9.24,9.24,0,1,0-.32-18.47,9.24,9.24,0,0,0,.32,18.47Z" transform="translate(-848.95 -344.94)"/><path class="cls-1" d="M2061.14,569.82a9,9,0,0,0,8.58,9.51c5.24.3,9.32-3.21,9.63-8.28.32-5.39-3-9.36-8.13-9.75A9.1,9.1,0,0,0,2061.14,569.82Z" transform="translate(-848.95 -344.94)"/><path class="cls-1" d="M1907,533.45a8.37,8.37,0,0,0-8.45-8.16,8.57,8.57,0,0,0-8.17,8.53,8.26,8.26,0,0,0,8.53,8A8,8,0,0,0,1907,533.45Z" transform="translate(-848.95 -344.94)"/><path class="cls-1" d="M1640.88,555.2a8.09,8.09,0,0,0-8.46-8,8.26,8.26,0,1,0,.42,16.51A8.13,8.13,0,0,0,1640.88,555.2Z" transform="translate(-848.95 -344.94)"/><path class="cls-1" d="M2551,590.92a7.82,7.82,0,0,0-8.1-7.82,8.12,8.12,0,0,0-8.21,7.83,8,8,0,0,0,8.49,8.07A7.75,7.75,0,0,0,2551,590.92Z" transform="translate(-848.95 -344.94)"/><path class="cls-1" d="M2716.64,699a8.12,8.12,0,0,0-7.91-8.13,7.86,7.86,0,0,0-8.34,7.59,7.72,7.72,0,0,0,8.06,8.35A8,8,0,0,0,2716.64,699Z" transform="translate(-848.95 -344.94)"/><path class="cls-1" d="M2294.71,702.4a7.39,7.39,0,0,0-7.39-7.74,7.79,7.79,0,0,0-7.7,7.59,7.87,7.87,0,0,0,7.29,7.47A7.43,7.43,0,0,0,2294.71,702.4Z" transform="translate(-848.95 -344.94)"/><path class="cls-1" d="M1889.32,709.88a8,8,0,0,0,8,7.37,7.66,7.66,0,0,0,7.13-7.56,7.41,7.41,0,0,0-7.6-7.52A7.66,7.66,0,0,0,1889.32,709.88Z" transform="translate(-848.95 -344.94)"/><path class="cls-1" d="M2042.95,557.15a7.74,7.74,0,0,0-7.61-7.66,8,8,0,0,0-7.56,7.25,7.77,7.77,0,0,0,7.43,7.86A7.54,7.54,0,0,0,2042.95,557.15Z" transform="translate(-848.95 -344.94)"/><path class="cls-1" d="M2167.56,540.2a7.56,7.56,0,0,0,7.7-7.05,7.39,7.39,0,0,0-7.22-8,7.27,7.27,0,0,0-7.67,6.95A7.5,7.5,0,0,0,2167.56,540.2Z" transform="translate(-848.95 -344.94)"/><path class="cls-1" d="M2554.49,642.93a6.94,6.94,0,0,0-7,6.89,6.87,6.87,0,1,0,7-6.89Z" transform="translate(-848.95 -344.94)"/><path class="cls-1" d="M2445.27,631.19a6.51,6.51,0,1,0-13-.3,6.23,6.23,0,0,0,6.08,6.39A6.33,6.33,0,0,0,2445.27,631.19Z" transform="translate(-848.95 -344.94)"/><path class="cls-1" d="M1468.65,677.17a6.42,6.42,0,0,0,6.49-6.62,6.59,6.59,0,0,0-13.17.17A6.45,6.45,0,0,0,1468.65,677.17Z" transform="translate(-848.95 -344.94)"/><path class="cls-1" d="M2166.35,731.75a6.12,6.12,0,0,0,6.28-6.09,6,6,0,0,0-6.32-6,5.78,5.78,0,0,0-5.93,5.75A6,6,0,0,0,2166.35,731.75Z" transform="translate(-848.95 -344.94)"/><path class="cls-1" d="M2128.59,706.78a6.09,6.09,0,0,0,6.48-6,6.48,6.48,0,0,0-5.94-6.12,6,6,0,0,0-6.31,6.13A5.62,5.62,0,0,0,2128.59,706.78Z" transform="translate(-848.95 -344.94)"/><path class="cls-1" d="M1647.08,714.35a5.76,5.76,0,0,0,5.69-6.07,6.17,6.17,0,0,0-6-6,6.26,6.26,0,0,0-6,6.5A6,6,0,0,0,1647.08,714.35Z" transform="translate(-848.95 -344.94)"/><path class="cls-1" d="M1378.36,615.42a5.41,5.41,0,0,0-5.9-5.7,5.51,5.51,0,0,0-5.59,5.5,5.75,5.75,0,0,0,5.66,6.07A5.68,5.68,0,0,0,1378.36,615.42Z" transform="translate(-848.95 -344.94)"/><path class="cls-1" d="M2741.46,599.76c-3.35-.29-5.74,1.66-5.95,4.87a5.47,5.47,0,0,0,5.08,5.93,5.74,5.74,0,0,0,5.79-5.34A5.24,5.24,0,0,0,2741.46,599.76Z" transform="translate(-848.95 -344.94)"/><path class="cls-1" d="M2529.55,689.21a5.73,5.73,0,0,0-5.71,5.45,5.55,5.55,0,0,0,5.09,5.43,5.37,5.37,0,0,0,5.9-5.09A5.54,5.54,0,0,0,2529.55,689.21Z" transform="translate(-848.95 -344.94)"/><path class="cls-1" d="M2424.38,622.21a4.89,4.89,0,0,0-5.09-4.61,4.65,4.65,0,0,0-4.63,5,4.87,4.87,0,0,0,5,4.7A5.11,5.11,0,0,0,2424.38,622.21Z" transform="translate(-848.95 -344.94)"/><path class="cls-1" d="M1815.23,502a4.86,4.86,0,0,0-5.2-4.51,4.57,4.57,0,0,0-4.63,5,4.85,4.85,0,0,0,5.08,4.68A5.32,5.32,0,0,0,1815.23,502Z" transform="translate(-848.95 -344.94)"/><path class="cls-1" d="M1528,628.94a4.8,4.8,0,0,0,4.9-4.8,4.89,4.89,0,1,0-4.9,4.8Z" transform="translate(-848.95 -344.94)"/><path class="cls-1" d="M2459.65,655a4.39,4.39,0,0,0-4.4-4.58,4.54,4.54,0,1,0-.1,9.07A4.38,4.38,0,0,0,2459.65,655Z" transform="translate(-848.95 -344.94)"/><path class="cls-1" d="M1766.49,774.22a4.15,4.15,0,0,0-4.41-3.86,4.08,4.08,0,0,0-3.85,4.39,4.22,4.22,0,0,0,4.35,3.92A4.44,4.44,0,0,0,1766.49,774.22Z" transform="translate(-848.95 -344.94)"/><path class="cls-1" d="M2538.8,666.21a3.88,3.88,0,0,0-4.46-3.68,3.77,3.77,0,0,0-3.42,4.14,3.73,3.73,0,0,0,3.88,3.71A3.85,3.85,0,0,0,2538.8,666.21Z" transform="translate(-848.95 -344.94)"/><path class="cls-1" d="M2667.07,587a4.09,4.09,0,0,0-4.35-3.85,3.72,3.72,0,0,0-3.9,3.66,4,4,0,0,0,4,4.2A4.23,4.23,0,0,0,2667.07,587Z" transform="translate(-848.95 -344.94)"/><path class="cls-1" d="M2690.46,716.59a4.14,4.14,0,0,0,4.22-4.09,4.33,4.33,0,0,0-4.05-3.74,4,4,0,0,0-4.14,4.12A3.89,3.89,0,0,0,2690.46,716.59Z" transform="translate(-848.95 -344.94)"/><path class="cls-1" d="M2121.48,626.8c.33-2.59.59-5.13,1-7.65,5.33-33.92,32.32-61.32,66.39-66.54,32.57-5,59,6.25,79,32.19,2.18,2.82,4.11,3.57,7.33,2.81a454.51,454.51,0,0,1,55.14-9.32c11.45-1.23,22.95-2.6,34.46-.43a30.06,30.06,0,0,1,4.24,1.07c6.37,2.2,7.82,6.23,3.9,11.83a30.44,30.44,0,0,1-6.8,7.07A145.9,145.9,0,0,1,2350.53,608c-20.92,11.47-43.08,20.14-65.7,27.54q-39.35,12.88-79,24.73a648.74,648.74,0,0,1-70.42,16.68c-13.49,2.44-26.81,5.84-40.34,8-13.16,2.11-26.46,3.59-39.76,4.58a61.47,61.47,0,0,1-17.91-1.74c-8.09-1.84-10-7.35-4.88-13.81a57.44,57.44,0,0,1,11.16-10.43c12.48-9.11,26.41-15.68,40.55-21.74,10.75-4.61,21.69-8.78,32.55-13.14C2118.24,628.05,2119.77,627.47,2121.48,626.8Zm101.65-53.43a15.69,15.69,0,0,0-15.76,15.57,16,16,0,1,0,31.92.17A15.74,15.74,0,0,0,2223.13,573.37ZM2126.73,662,2122,645c-9.76,4.57-19.93,7.57-27.58,15.61C2100.08,664.15,2115,664.62,2126.73,662Zm182.72-58.2c-5.18-2.5-22.95-2.86-31.19-.68l4.28,15.48C2294.7,615.27,2306.3,608.95,2309.44,603.77Z" transform="translate(-848.95 -344.94)"/><path class="cls-1" d="M1884.22,622.25a156.22,156.22,0,0,1,0,28.24c-.23,2.64-1.92,3.75-4.06,4.6-13.59,5.39-27,11.38-40.8,16.05-27.6,9.33-56.23,14.61-84.81,20-24.25,4.55-48.47,9.25-72.7,13.94-5.61,1.09-5.63,1.22-8.95-3.67a113.58,113.58,0,0,1-17.44-40c-.19-.87-.21-1.79-.37-3.26,39.2,2.42,78.08,1.71,116.79-3.86S1848,638.69,1884.22,622.25Z" transform="translate(-848.95 -344.94)"/><path class="cls-1" d="M850.49,346.39c4-1.21,6.45.37,9,2.89q68.67,67.44,99.33,158.65a394.24,394.24,0,0,1-98.11,405.31c-1.17,1.15-2.33,2.33-3.39,3.58-.3.35-.24,1-.37,1.6H850.6c-1.61-4.26.17-7,3-9.75A383.72,383.72,0,0,0,943.14,775a378.25,378.25,0,0,0,24.93-99.27,382.46,382.46,0,0,0-.35-91q-15-118.33-93.69-208.14c-6.75-7.71-14-15-21.26-22.23C850.42,352,849.38,349.76,850.49,346.39Z" transform="translate(-848.95 -344.94)"/><path class="cls-1" d="M1836.29,542c-53.38,33-111.3,46.45-173,47.15C1689.07,524.15,1776.27,497.37,1836.29,542Zm-73.62,17.2a106.16,106.16,0,0,0,32-5.33,54.43,54.43,0,0,0,9-4.06c3.21-1.8,6.5-3.94,6.3-8.25s-3.84-6-7.21-7.4a44.39,44.39,0,0,0-7.85-2.41,90.05,90.05,0,0,0-36-.45,186.86,186.86,0,0,0-22.15,6,20.46,20.46,0,0,0-6.95,4.29c-4.61,4.05-4.18,8.32,1.07,11.6a28.76,28.76,0,0,0,6.52,2.82C1745,558.44,1752.79,559.18,1762.67,559.18Z" transform="translate(-848.95 -344.94)"/><path class="cls-1" d="M2509.83,641.41c-11.59-3.36-22.89-7.44-31.93-15.89-3.42-3.2-6.27-7-9.2-10.32,5.85-10.69,22.37-18.91,38.45-14.77,14.46,3.72,25.78,16.1,26.74,29.51-7.21-.44-14-2.58-20.68-4.81s-13.34-4.83-20.41-6.57c3.21,1.66,6.36,3.45,9.65,5s6.72,2.88,10.17,4.07c3.62,1.26,7.3,2.37,11,3.32,3.51.9,7.09,1.5,10.81,2.27,1.08,6.19-.31,11.77-2.43,17.27-.72,1.86-2.23,2.12-3.91,2.45-7,1.36-13.89.23-20.75-.76-5.41-.79-10.73-2.21-16.09-3.33-.65-.14-1.33-.18-2.59-.34,9.49,5.92,23.9,8.32,39.81,6.91-3.81,10.3-18.12,17.8-32.72,17.14-14.17-.64-27.87-10.91-31.39-24.11,12.68,10.69,27.3,14.22,43,14.53-5.14-1.25-10.32-2.38-15.42-3.79-9.05-2.5-17.58-6.09-25.1-11.93a12.46,12.46,0,0,1-5.2-11.3c.3-6.64,1.44-12.93,5.75-19.13C2477.43,632.72,2492.11,639.82,2509.83,641.41Z" transform="translate(-848.95 -344.94)"/><path class="cls-1" d="M2142.43,684.65c7.44-.71,14.88-1.47,22.33-2.13,25.35-2.25,50.65-4.94,75.37-11.18,11.32-2.86,22.35-6.86,33.51-10.36,1.33-.42,2.62-.94,5.16-1.86-11.24,27.46-30,44.9-57.67,51.37-30.84,7.21-57.23-1.9-79-24.38Z" transform="translate(-848.95 -344.94)"/><path class="cls-1" d="M1652.87,632.77c0-2.18-.12-3.81,0-5.41.21-2.36.6-4.7,1-7.58h6c13.92,0,27.85.37,41.75-.21,34.71-1.45,68.82-6.59,101.59-18.69A216.29,216.29,0,0,0,1860,570.19c.84-.64,1.78-1.15,3.24-2.1l10.33,17c-1.92,1.39-3.44,2.6-5.06,3.66-22.12,14.49-46.36,24.07-71.79,30.89a401.46,401.46,0,0,1-74.09,12.21c-21.19,1.6-42.41,2.37-63.66,1.27C1657.21,633,1655.4,632.92,1652.87,632.77Z" transform="translate(-848.95 -344.94)"/><path class="cls-1" d="M1874.84,683.17a103.39,103.39,0,0,1-15.95,25.89c-1.26,1.5-3.66,2.32-5.69,2.84-18.41,4.69-36.88,9.11-55.27,13.87-20.53,5.31-40.84,11.35-60.53,19.3a9,9,0,0,1-6.85.46,117.53,117.53,0,0,1-29.11-15.11,14.94,14.94,0,0,1-1.77-2c2.9-.75,5.3-1.5,7.76-2,26.66-5.49,53.35-10.84,80-16.44,28.84-6.06,57.21-13.7,84.2-25.79C1872.27,683.93,1873,683.78,1874.84,683.17Z" transform="translate(-848.95 -344.94)"/><path class="cls-1" d="M1490.43,664a28.17,28.17,0,1,1,28.07-28.35A28.24,28.24,0,0,1,1490.43,664Z" transform="translate(-848.95 -344.94)"/><path class="cls-1" d="M2650.79,651.57c-2.62-4.53-3.06-9.41-3.4-14.33-.15-2.25,1.39-3.24,2.95-4.23a81.67,81.67,0,0,1,22.48-10c12.7-3.46,25.49-6.59,38.23-9.91,3.34-.87,6.63-1.94,9.83-2.89,4.14,4.19,5.78,7.25,7.62,14.39-1.69,1-3.49,2.21-5.36,3.25-11.11,6.2-23.19,9.87-35.32,13.4q-17.38,5.06-34.77,10.07A13.9,13.9,0,0,1,2650.79,651.57Z" transform="translate(-848.95 -344.94)"/><path class="cls-1" d="M1201.78,656.3a20.38,20.38,0,0,1-20.52-20.52,20.67,20.67,0,0,1,20.23-20.38,20.45,20.45,0,1,1,.29,40.9Z" transform="translate(-848.95 -344.94)"/><path class="cls-1" d="M1337.77,607.6a29.19,29.19,0,0,1,29.34,29.17,29.44,29.44,0,1,1-58.88.33A29.11,29.11,0,0,1,1337.77,607.6Zm.1,50.56a21.27,21.27,0,0,0-.17-42.54c-11.46-.09-21.37,9.86-21.32,21.4A21.46,21.46,0,0,0,1337.87,658.15Z" transform="translate(-848.95 -344.94)"/><path class="cls-1" d="M2661.74,666.14c11.91-3.7,23.36-6.93,34.56-10.84s22-8.47,33.44-12.91c-3.16,15.76-12.07,26.53-27.09,32.32C2690.44,679.43,2671.27,677,2661.74,666.14Z" transform="translate(-848.95 -344.94)"/><path class="cls-1" d="M2648.9,626.7c3-14.59,11.44-24.76,25.21-29.88,15-5.58,29-2.88,42.47,7.79-3.53,1.23-6.12,2.32-8.81,3-10.06,2.64-20.18,5.1-30.24,7.75A115.23,115.23,0,0,0,2648.9,626.7Z" transform="translate(-848.95 -344.94)"/><path class="cls-1" d="M1940.69,638.51A14.2,14.2,0,0,1,1926,652.87a14,14,0,0,1-14.11-14.35A14.23,14.23,0,0,1,1926,624.09,14.39,14.39,0,0,1,1940.69,638.51Z" transform="translate(-848.95 -344.94)"/><path class="cls-1" d="M1841.43,725.92c-21.21,17.31-45.34,26-73,25.91C1775.64,743.39,1828.54,726.42,1841.43,725.92Z" transform="translate(-848.95 -344.94)"/><path class="cls-1" d="M1069.83,635.68a12.86,12.86,0,0,1,13.41-12.85,13.2,13.2,0,0,1,13.07,13.33,13.56,13.56,0,0,1-13.55,13A13.18,13.18,0,0,1,1069.83,635.68Z" transform="translate(-848.95 -344.94)"/><path class="cls-1" d="M2141.34,552A12.46,12.46,0,0,1,2129,564.62a12.28,12.28,0,0,1-12.54-12.37,12.43,12.43,0,0,1,12.28-12.7A12.66,12.66,0,0,1,2141.34,552Z" transform="translate(-848.95 -344.94)"/><path class="cls-1" d="M1701,715.59c7.39-9.89,40.9-15.74,50.46-9.51-.17,3.13-2.77,4-5,5-7.84,3.77-16.27,5.45-24.82,6.31a109.64,109.64,0,0,1-15.28.09C1704.77,717.45,1703.18,716.39,1701,715.59Z" transform="translate(-848.95 -344.94)"/><path class="cls-1" d="M1612,536.45a10.46,10.46,0,1,1-10.52-10.25A10.22,10.22,0,0,1,1612,536.45Z" transform="translate(-848.95 -344.94)"/><path class="cls-1" d="M2309.5,741.62a9.24,9.24,0,0,1-.32-18.47,9.24,9.24,0,1,1,.32,18.47Z" transform="translate(-848.95 -344.94)"/><path class="cls-1" d="M2061.14,569.82a9.1,9.1,0,0,1,10.07-8.52c5.14.4,8.45,4.36,8.13,9.75-.3,5.07-4.39,8.58-9.63,8.28A9,9,0,0,1,2061.14,569.82Z" transform="translate(-848.95 -344.94)"/><path class="cls-1" d="M1907,533.45a8,8,0,0,1-8.09,8.39,8.26,8.26,0,0,1-8.53-8,8.57,8.57,0,0,1,8.17-8.53A8.37,8.37,0,0,1,1907,533.45Z" transform="translate(-848.95 -344.94)"/><path class="cls-1" d="M1640.88,555.2a8.13,8.13,0,0,1-8,8.47,8.26,8.26,0,1,1-.42-16.51A8.09,8.09,0,0,1,1640.88,555.2Z" transform="translate(-848.95 -344.94)"/><path class="cls-1" d="M2551,590.92a7.75,7.75,0,0,1-7.82,8.08,8,8,0,0,1-8.49-8.07,8.12,8.12,0,0,1,8.21-7.83A7.82,7.82,0,0,1,2551,590.92Z" transform="translate(-848.95 -344.94)"/><path class="cls-1" d="M2716.64,699a8,8,0,0,1-8.18,7.81,7.72,7.72,0,0,1-8.06-8.35,7.86,7.86,0,0,1,8.34-7.59A8.12,8.12,0,0,1,2716.64,699Z" transform="translate(-848.95 -344.94)"/><path class="cls-1" d="M2294.71,702.4a7.43,7.43,0,0,1-7.8,7.32,7.87,7.87,0,0,1-7.29-7.47,7.79,7.79,0,0,1,7.7-7.59A7.39,7.39,0,0,1,2294.71,702.4Z" transform="translate(-848.95 -344.94)"/><path class="cls-1" d="M1889.32,709.88a7.66,7.66,0,0,1,7.5-7.72,7.41,7.41,0,0,1,7.6,7.52,7.66,7.66,0,0,1-7.13,7.56A8,8,0,0,1,1889.32,709.88Z" transform="translate(-848.95 -344.94)"/><path class="cls-1" d="M2042.95,557.15a7.54,7.54,0,0,1-7.74,7.45,7.77,7.77,0,0,1-7.43-7.86,8,8,0,0,1,7.56-7.25A7.74,7.74,0,0,1,2042.95,557.15Z" transform="translate(-848.95 -344.94)"/><path class="cls-1" d="M2167.56,540.2a7.5,7.5,0,0,1-7.19-8.08,7.27,7.27,0,0,1,7.67-6.95,7.39,7.39,0,0,1,7.22,8A7.56,7.56,0,0,1,2167.56,540.2Z" transform="translate(-848.95 -344.94)"/><path class="cls-1" d="M2554.49,642.93a7,7,0,1,1-7,6.89A6.87,6.87,0,0,1,2554.49,642.93Z" transform="translate(-848.95 -344.94)"/><path class="cls-1" d="M2445.27,631.19a6.33,6.33,0,0,1-6.93,6.09,6.23,6.23,0,0,1-6.08-6.39,6.51,6.51,0,1,1,13,.3Z" transform="translate(-848.95 -344.94)"/><path class="cls-1" d="M1468.65,677.17a6.45,6.45,0,0,1-6.68-6.44,6.59,6.59,0,0,1,13.17-.17A6.42,6.42,0,0,1,1468.65,677.17Z" transform="translate(-848.95 -344.94)"/><path class="cls-1" d="M2166.35,731.75a6,6,0,0,1-6-6.32,5.78,5.78,0,0,1,5.93-5.75,6,6,0,0,1,6.32,6A6.12,6.12,0,0,1,2166.35,731.75Z" transform="translate(-848.95 -344.94)"/><path class="cls-1" d="M2128.59,706.78a5.62,5.62,0,0,1-5.77-6,6,6,0,0,1,6.31-6.13,6.48,6.48,0,0,1,5.94,6.12A6.09,6.09,0,0,1,2128.59,706.78Z" transform="translate(-848.95 -344.94)"/><path class="cls-1" d="M1647.08,714.35a6,6,0,0,1-6.29-5.53,6.26,6.26,0,0,1,6-6.5,6.17,6.17,0,0,1,6,6A5.76,5.76,0,0,1,1647.08,714.35Z" transform="translate(-848.95 -344.94)"/><path class="cls-1" d="M1378.36,615.42a5.68,5.68,0,0,1-5.83,5.88,5.75,5.75,0,0,1-5.66-6.07,5.51,5.51,0,0,1,5.59-5.5A5.41,5.41,0,0,1,1378.36,615.42Z" transform="translate(-848.95 -344.94)"/><path class="cls-1" d="M2741.46,599.76a5.24,5.24,0,0,1,4.93,5.46,5.74,5.74,0,0,1-5.79,5.34,5.47,5.47,0,0,1-5.08-5.93C2735.71,601.43,2738.1,599.47,2741.46,599.76Z" transform="translate(-848.95 -344.94)"/><path class="cls-1" d="M2529.55,689.21a5.54,5.54,0,0,1,5.27,5.8,5.37,5.37,0,0,1-5.9,5.09,5.55,5.55,0,0,1-5.09-5.43A5.73,5.73,0,0,1,2529.55,689.21Z" transform="translate(-848.95 -344.94)"/><path class="cls-1" d="M2424.38,622.21a5.11,5.11,0,0,1-4.72,5.07,4.87,4.87,0,0,1-5-4.7,4.65,4.65,0,0,1,4.63-5A4.89,4.89,0,0,1,2424.38,622.21Z" transform="translate(-848.95 -344.94)"/><path class="cls-1" d="M1815.23,502a5.32,5.32,0,0,1-4.76,5.15,4.85,4.85,0,0,1-5.08-4.68,4.57,4.57,0,0,1,4.63-5A4.86,4.86,0,0,1,1815.23,502Z" transform="translate(-848.95 -344.94)"/><path class="cls-1" d="M1528,628.94a4.79,4.79,0,1,1,4.9-4.8A4.78,4.78,0,0,1,1528,628.94Z" transform="translate(-848.95 -344.94)"/><path class="cls-1" d="M2459.65,655a4.38,4.38,0,0,1-4.5,4.49,4.54,4.54,0,1,1,4.5-4.49Z" transform="translate(-848.95 -344.94)"/><path class="cls-1" d="M1766.49,774.22a4.44,4.44,0,0,1-3.9,4.45,4.22,4.22,0,0,1-4.35-3.92,4.08,4.08,0,0,1,3.85-4.39A4.15,4.15,0,0,1,1766.49,774.22Z" transform="translate(-848.95 -344.94)"/><path class="cls-1" d="M2538.8,666.21a3.85,3.85,0,0,1-4,4.16,3.73,3.73,0,0,1-3.88-3.71,3.77,3.77,0,0,1,3.42-4.14A3.88,3.88,0,0,1,2538.8,666.21Z" transform="translate(-848.95 -344.94)"/><path class="cls-1" d="M2667.07,587a4.23,4.23,0,0,1-4.26,4,4,4,0,0,1-4-4.2,3.72,3.72,0,0,1,3.9-3.66A4.09,4.09,0,0,1,2667.07,587Z" transform="translate(-848.95 -344.94)"/><path class="cls-1" d="M2690.46,716.59a3.89,3.89,0,0,1-4-3.71,4,4,0,0,1,4.14-4.12,4.33,4.33,0,0,1,4.05,3.74A4.14,4.14,0,0,1,2690.46,716.59Z" transform="translate(-848.95 -344.94)"/><path class="cls-1" d="M2223.13,573.37a15.74,15.74,0,0,1,16.16,15.74,16,16,0,1,1-31.92-.17A15.69,15.69,0,0,1,2223.13,573.37Z" transform="translate(-848.95 -344.94)"/><path class="cls-1" d="M2126.73,662c-11.75,2.66-26.65,2.19-32.31-1.35,7.65-8,17.81-11,27.58-15.61Z" transform="translate(-848.95 -344.94)"/><path class="cls-1" d="M2309.44,603.77c-3.15,5.18-14.74,11.51-26.91,14.8l-4.28-15.48C2286.5,600.91,2304.27,601.27,2309.44,603.77Z" transform="translate(-848.95 -344.94)"/><path class="cls-1" d="M1762.67,559.18c-9.89,0-17.7-.74-25.27-3.15a28.76,28.76,0,0,1-6.52-2.82c-5.26-3.28-5.68-7.55-1.07-11.6a20.46,20.46,0,0,1,6.95-4.29,186.86,186.86,0,0,1,22.15-6,90.05,90.05,0,0,1,36,.45,44.39,44.39,0,0,1,7.85,2.41c3.36,1.43,7,3,7.21,7.4s-3.08,6.45-6.3,8.25a54.43,54.43,0,0,1-9,4.06A106.16,106.16,0,0,1,1762.67,559.18Z" transform="translate(-848.95 -344.94)"/><path class="cls-1" d="M1337.87,658.15A21.46,21.46,0,0,1,1316.38,637c0-11.54,9.87-21.49,21.32-21.4a21.27,21.27,0,0,1,.17,42.54Z" transform="translate(-848.95 -344.94)"/></svg>